<svg xmlns="http://www.w3.org/2000/svg" viewBox="0 0 160 40" role="img" aria-label="GoodBoog Files">
  <!-- "g" icon badge -->
  <rect x="0" y="4" width="32" height="32" rx="7" fill="#1d63b7"/>
  <path fill="#ffffff" d="M17.6 9.2c4 0 7 2.4 7.8 6.2h-4.6c-.5-1.2-1.6-1.9-3.2-1.9-2.4 0-4 1.7-4 4.4s1.6 4.5 4.1 4.5c1.9 0 3.2-1 3.6-2.8H17v-2h8.4v2.5c-.6 4.3-3.9 7.5-8.4 7.5-5.3 0-9-3.6-9-8.6 0-4.9 3.7-8.8 9.6-8.8z"/>
  <!-- "files" text -->
  <text x="42" y="27" font-family="Inter, system-ui, sans-serif" font-size="18" font-weight="700" fill="#e2e8f0" letter-spacing="-0.3">files</text>
  <!-- "by goodboog" small text -->
  <text x="43" y="38" font-family="Inter, system-ui, sans-serif" font-size="9" font-weight="400" fill="#64748b" letter-spacing="0.3">by goodboog</text>
</svg>
